<svg xmlns="http://www.w3.org/2000/svg" width="512" height="512" viewBox="0 0 512 512"><g fill="#008cdb" opcatity="0"><path d="M413.6 457.6h-1.2c-45.4-3-85.8-16.5-112.7-37.4-14.3 2.7-29 4-43.7 4-115.8 0-210-83-210-184.9S140.2 54.4 256 54.4s210 83 210 184.9c0 55.1-28.2 107.4-76 142.4 4.9 14.1 14.9 34.4 31.3 42.3 7.6 3.7 11.5 12.3 9.4 20.5-2 7.8-9.1 13.1-17.1 13.1zm-109-74.2c4.4 0 8.7 1.6 12 4.7 11.7 10.7 28.7 19.5 48.8 25.5-9.5-18.2-12.9-34.7-13.1-36-1.4-7.1 1.7-14.4 7.9-18.3 44.8-28.6 70.5-72.3 70.5-120 0-82.4-78.3-149.5-174.6-149.5s-174.7 67-174.7 149.5S159.7 388.8 256 388.8c15.1 0 30.2-1.7 44.7-4.9 1.2-.4 2.6-.5 3.9-.5z"/><path d="M256 343.5c-75.3 0-113.5-54.9-115.1-56.9-3.3-4.3-2.6-10.5 1.7-13.8 4.3-3.3 10.4-2.6 13.8 1.7 1.4 1.8 34.2 35.9 99.6 35.9 65.5 0 94.8-35 95.1-35.4 3.1-4.5 9.2-5.6 13.7-2.5 4.5 3.1 5.6 9.2 2.5 13.7-1.4 2-35.6 57.3-111.3 57.3z"/></g></svg>